#!OML:ASF H:\Male1\Project 1\Capture day 1\Session 1\Male1.ASF
:FULLY-SPECIFIED
:DEGREES
436
root 21.4406 11.9822 -3.99838 255.916 85.8315 -130.408
lowerback 49.0242 -1.52658 0.236352
upperback 17.2444 1.21073 -2.22647
thorax -1.16709 1.82814 -2.94068
lowerneck -5.43954 3.80805 10.1951
upperneck -10.5029 4.8098 -4.85769
head -2.08165 2.31797 -3.39156
rclavicle 8.22969e-014 2.57116e-014
rhumerus 50.022 -1.3851 -64.7086
rradius 41.2185
rwrist -34.0158
rhand -32.17 10.8455
rfingers 7.12502
rthumb -5.41288 -19.0654
lclavicle 8.22969e-014 2.57116e-014
lhumerus 48.8952 3.33494 52.2794
lradius 44.9151
lwrist 26.0931
lhand -34.3766 14.5272
lfingers 7.12502
lthumb -7.54309 44.3726
rfemur -87.8342 5.21973 28.5468
rtibia 89.835
rfoot -28.9032 -23.4948
rtoes -19.1796
lfemur -89.9183 -5.49971 -13.6309
ltibia 91.9458
lfoot -26.4765 16.6258
ltoes -10.7734
437
root 21.4421 11.9906 -4.00554 256.006 85.6023 -130.422
lowerback 48.7167 -1.63943 0.471909
upperback 17.2389 1.16204 -2.1876
thorax -1.13414 1.80689 -2.98856
lowerneck -5.63387 3.8363 10.0086
upperneck -10.4698 4.84521 -4.75319
head -2.03891 2.34179 -3.31279
rclavicle 5.60573e-014 8.33653e-015
rhumerus 50.2258 -1.37751 -65.0272
rradius 40.5286
rwrist -33.0715
rhand -32.1276 10.8162
rfingers 7.12502
rthumb -5.37192 -19.0957
lclavicle 5.60573e-014 8.33653e-015
lhumerus 49.0662 3.31285 52.5712
lradius 44.1555
lwrist 24.616
lhand -34.2385 15.3695
lfingers 7.12502
lthumb -7.40974 45.2197
rfemur -87.8484 5.16623 28.7013
rtibia 89.6785
rfoot -28.7724 -23.494
rtoes -19.485
lfemur -90.031 -5.49531 -13.4587
ltibia 91.845
lfoot -26.4332 16.4693
ltoes -10.1133
438
root 21.4441 12.0054 -4.00792 256.992 85.4304 -129.576
lowerback 48.2875 -1.59383 0.525799
upperback 17.2596 1.21645 -2.09183
thorax -1.05007 1.81824 -2.92562
lowerneck -5.40661 3.89753 10.454
upperneck -10.8551 4.90316 -5.31447
head -2.18365 2.36444 -3.60977
rclavicle 8.34896e-015 -5.7896e-015
rhumerus 50.5159 -1.45531 -65.2796
rradius 39.6958
rwrist -32.2272
rhand -32.0964 10.9178
rfingers 7.12502
rthumb -5.34176 -18.9948
lclavicle 8.34896e-015 -5.7896e-015
lhumerus 49.328 3.33305 52.9924
lradius 43.2588
lwrist 22.8701
lhand -33.6426 16.9646
lfingers 7.12502
lthumb -6.83453 46.8342
rfemur -87.8363 5.24976 28.833
rtibia 89.5503
rfoot -28.8724 -23.4704
rtoes -19.3178
lfemur -90.1123 -5.38428 -13.2824
ltibia 91.6476
lfoot -26.3856 16.4915
ltoes -10.5842
439
root 21.4473 12.0306 -4.00859 257.355 85.3612 -129.257
lowerback 46.9079 -1.54905 0.508522
upperback 18.2111 1.26712 -1.99502
thorax -0.840855 1.82173 -2.86678
lowerneck -5.72106 3.89701 10.1647
upperneck -10.508 4.89594 -5.02001
head -2.02308 2.36707 -3.43261
rclavicle 4.09496e-014 4.32636e-014
rhumerus 50.7979 -1.56017 -65.6442
rradius 38.8566
rwrist -31.4344
rhand -31.9607 10.6521
rfingers 7.12502
rthumb -5.21074 -19.2638
lclavicle 4.09496e-014 4.32636e-014
lhumerus 49.6642 3.48501 53.4524
lradius 42.3825
lwrist 21.0276
lhand -32.5884 18.7571
lfingers 7.12502
lthumb -5.81687 48.6572
rfemur -87.6451 5.28566 28.8856
rtibia 89.4977
rfoot -29.1342 -23.5204
rtoes -19.3083
lfemur -89.9456 -5.32653 -13.191
ltibia 91.4015
lfoot -26.5824 16.5733
ltoes -11.4399
440
root 21.4484 12.1043 -4.00704 256.589 85.2989 -129.009
lowerback 48.9552 -1.51481 0.355937
upperback 17.2774 1.304 -1.96477
thorax -1.11924 1.86218 -2.74918
lowerneck -5.77499 3.88035 10.1545
upperneck -10.5519 4.86371 -5.0974
head -2.02925 2.35214 -3.45792
rclavicle -8.68689e-014 -3.22497e-014
rhumerus 51.0668 -1.75913 -66.2411
rradius 38.0033
rwrist -30.5677
rhand -31.5274 9.52189
rfingers 7.12502
rthumb -4.7924 -20.4039
lclavicle -8.68689e-014 -3.22497e-014
lhumerus 49.9763 3.62459 54.0877
lradius 41.418
lwrist 18.8152
lhand -31.9019 19.2773
lfingers 7.12502
lthumb -5.15404 49.1947
rfemur -85.6657 5.1079 28.7724
rtibia 90.0275
rfoot -34.2745 -17.0878
rtoes 0.608033
lfemur -88.1842 -5.41685 -13.2266
ltibia 90.7921
lfoot -26.874 16.5564
ltoes -11.5807
441
root 21.4277 12.081 -4.01332 257.744 85.207 -129.114
lowerback 46.0394 -1.50514 0.596135
upperback 18.2262 1.30986 -1.87826
thorax -0.625856 1.82455 -2.78862
lowerneck -5.72584 3.889 10.2742
upperneck -10.7024 4.86871 -5.25255
head -2.08262 2.35291 -3.54046
rclavicle 2.56432e-014 -1.08586e-014
rhumerus 51.2222 -2.22857 -67.28
rradius 37.5482
rwrist -29.8441
rhand -30.6161 7.65626
rfingers 7.12502
rthumb -3.9124 -22.2876
lclavicle 2.56432e-014 -1.08586e-014
lhumerus 50.2233 3.67792 54.8471
lradius 40.2842
lwrist 16.5182
lhand -31.5986 18.893
lfingers 7.12502
lthumb -4.86118 48.8173
rfemur -87.2516 5.18265 28.5457
rtibia 90.6597
rfoot -35.8352 -13.6624
rtoes 9.3406
lfemur -89.9437 -5.36157 -12.9745
ltibia 90.6581
lfoot -26.2551 16.5938
ltoes -10.993
442
root 21.4393 12.1686 -4.00958 258.195 85.201 -127.563
lowerback 47.1029 -1.29209 0.314901
upperback 18.2356 1.52606 -1.75652
thorax -0.84838 1.92589 -2.6137
lowerneck -5.5921 3.87193 10.4483
upperneck -10.8367 4.84755 -5.36023
head -2.14828 2.33719 -3.61964
rclavicle 4.03533e-014 5.43241e-015
rhumerus 51.5196 -2.41113 -67.1386
rradius 36.6392
rwrist -30.7819
rhand -30.0267 6.19398
rfingers 7.12502
rthumb -3.34329 -23.7595
lclavicle 4.03533e-014 5.43241e-015
lhumerus 50.4199 3.70884 55.8028
lradius 39.337
lwrist 14.7781
lhand -31.0255 18.4013
lfingers 7.12502
lthumb -4.30781 48.3375
rfemur -85.1513 5.1185 28.6166
rtibia 89.9567
rfoot -36.4058 -12.6177
rtoes 11.9614
lfemur -87.8862 -5.36817 -13.0079
ltibia 89.9165
lfoot -26.4879 16.5476
ltoes -10.7075
443
root 21.4442 12.2224 -4.00985 259.672 84.9743 -126.089
lowerback 46.662 -1.21598 0.374319
upperback 18.2729 1.62434 -1.64983
thorax -0.705464 1.96238 -2.55762
lowerneck -5.39085 3.87788 10.6071
upperneck -10.9599 4.85317 -5.58983
head -2.21716 2.33773 -3.7405
rclavicle -7.53394e-014 -6.17475e-015
rhumerus 51.7495 -2.60675 -67.7126
rradius 36.0191
rwrist -31.2645
rhand -29.7605 5.03722
rfingers 7.12502
rthumb -3.08614 -24.9202
lclavicle -7.53394e-014 -6.17475e-015
lhumerus 50.5209 4.12058 56.9423
lradius 39.1076
lwrist 14.6956
lhand -28.9023 18.8155
lfingers 7.12502
lthumb -2.25738 48.7833
rfemur -84.7743 5.13874 28.9867
rtibia 88.6549
rfoot -34.6999 -15.1443
rtoes 5.00295
lfemur -87.4455 -5.25557 -12.7108
ltibia 89.3337
lfoot -26.3799 16.4254
ltoes -10.9719
444
root 21.4452 12.2544 -4.03161 258.723 84.8735 -127.443
lowerback 45.8531 -1.48381 0.705039
upperback 18.2303 1.38044 -1.73284
thorax -0.576025 1.85566 -2.71154
lowerneck -5.22124 3.94289 10.7798
upperneck -10.9782 4.92421 -5.92471
head -2.23587 2.37368 -3.89686
rclavicle 9.14409e-015 1.04675e-014
rhumerus 51.8433 -2.86433 -69.3259
rradius 35.7022
rwrist -30.9129
rhand -29.559 4.24283
rfingers 7.12502
rthumb -2.89159 -25.7173
lclavicle 9.14409e-015 1.04675e-014
lhumerus 50.2918 4.39562 57.5408
lradius 39.0412
lwrist 14.4614
lhand -26.2621 22.5286
lfingers 7.12502
lthumb 0.292623 52.5082
rfemur -85.3591 4.67839 29.397
rtibia 86.4988
rfoot -26.8855 -24.0752
rtoes -25.2049
lfemur -87.6626 -5.57398 -12.5648
ltibia 88.7425
lfoot -26.1598 16.3936
ltoes -10.9279
445
root 21.4544 12.3545 -4.02737 257.93 85.0629 -127.539
lowerback 46.1272 -1.44987 0.414478
upperback 18.3102 1.34537 -1.78221
thorax -0.551518 1.84144 -2.60651
lowerneck -5.16954 3.99967 11.0132
upperneck -10.9297 4.96987 -6.27119
head -2.21146 2.39504 -4.06488
rclavicle -3.39922e-014 -1.56822e-014
rhumerus 52.0518 -3.02447 -70.5051
rradius 34.832
rwrist -31.4204
rhand -29.4097 4.05404
rfingers 7.12502
rthumb -2.74735 -25.908
lclavicle -3.39922e-014 -1.56822e-014
lhumerus 49.9985 4.33072 57.6639
lradius 38.8696
lwrist 14.8963
lhand -24.9019 24.6353
lfingers 7.12502
lthumb 1.60627 54.609
rfemur -83.5369 4.34249 29.2304
rtibia 86.0535
rfoot -30.6787 -19.6852
rtoes -11.0584
lfemur -85.9449 -5.62134 -12.8074
ltibia 87.7795
lfoot -26.3092 16.1945
ltoes -10.7554
446
root 21.4495 12.4131 -4.03435 258.28 84.9898 -127.129
lowerback 45.6272 -1.56349 0.579857
upperback 18.3838 1.26017 -1.8563
thorax -0.3544 1.81543 -2.728
lowerneck -5.22653 4.07425 11.1045
upperneck -10.8372 5.05287 -6.38502
head -2.15706 2.43659 -4.11707
rclavicle 1.96797e-014 3.02122e-014
rhumerus 52.2822 -3.08075 -71.1846
rradius 33.9441
rwrist -32.9931
rhand -29.3515 3.94735
rfingers 7.12502
rthumb -2.69121 -26.0154
lclavicle 1.96797e-014 3.02122e-014
lhumerus 49.5892 3.88004 57.347
lradius 38.3843
lwrist 16.015
lhand -26.0888 23.4793
lfingers 7.12502
lthumb 0.459956 53.4585
rfemur -82.7488 3.88631 29.3676
rtibia 85.4944
rfoot -32.6272 -15.7378
rtoes 0.414722
lfemur -85.4368 -5.6429 -12.7306
ltibia 87.0074
lfoot -25.9804 16.1737
ltoes -10.083
